<?xml version="1.0" encoding="UTF-8"?>
<svg width="128px" height="130px" viewBox="0 0 128 130" version="1.1" xmlns="http://www.w3.org/2000/svg" xmlns:xlink="http://www.w3.org/1999/xlink">
    <!-- Generator: Sketch 51.2 (57519) - http://www.bohemiancoding.com/sketch -->
    <title>Header - Logo</title>
    <desc>Created with Sketch.</desc>
    <defs></defs>
    <g id="Page-1" stroke="none" stroke-width="1" fill="none" fill-rule="evenodd">
        <g id="Categorypage---parent---v1" transform="translate(-115.000000, -63.000000)">
            <g id="Header">
                <g id="Header---Logo" transform="translate(116.000000, 64.000000)">
                    <g id="Logo">
                        <g id="Vector">
                            <g id="Default">
                                <g id="Top">
                                    <path d="M63.2924328,127.84447 C98.0874492,127.84447 126.466098,99.156522 126.466098,63.9817023 C126.466098,28.8073023 98.0874492,0.118935082 63.2924328,0.118935082 C28.4978361,0.118935082 0.119186885,28.8073023 0.119186885,63.9817023 C0.119186885,99.156522 28.4978361,127.84447 63.2924328,127.84447" id="Fill-1" fill="#292826"></path>
                                    <path d="M63.2924328,127.84447 C98.0874492,127.84447 126.466098,99.156522 126.466098,63.9817023 C126.466098,28.8073023 98.0874492,0.118935082 63.2924328,0.118935082 C28.4978361,0.118935082 0.119186885,28.8073023 0.119186885,63.9817023 C0.119186885,99.156522 28.4978361,127.84447 63.2924328,127.84447 Z" id="Stroke-3" stroke="#2A2A29" stroke-width="0.567"></path>
                                    <path d="M34.4961259,56.6418046 L34.4961259,45.1918898 C34.4961259,43.6084669 33.5699095,42.8220013 31.7279685,42.8220013 L31.7279685,59.0440079 C33.5699095,59.0440079 34.4961259,58.2470505 34.4961259,56.6418046 Z M34.4961259,35.4974636 L34.4961259,27.8069718 C34.4961259,26.2231292 33.5699095,25.4370833 31.7279685,25.4370833 L31.7279685,37.8996669 C33.5699095,37.8996669 34.4961259,37.1022898 34.4961259,35.4974636 Z M21.7859357,64.8497521 L21.7859357,19.5986046 L33.4943685,19.5986046 C36.2843489,19.5986046 38.7188669,20.2344079 40.7760997,21.5051751 C42.8442439,22.776362 43.8674046,24.8121915 43.8674046,27.6130833 L43.8674046,33.8926374 C43.8674046,37.0703948 41.9394308,39.3106046 38.0616603,40.6141062 C42.1442308,41.6263554 44.1909718,43.8023554 44.1909718,47.1412669 L44.1909718,55.9203882 C44.1909718,58.9038374 43.2106177,61.1444669 41.2717325,62.6200341 C39.3219357,64.1065128 37.0057652,64.8497521 34.3131489,64.8497521 L21.7859357,64.8497521 Z" id="Fill-5" fill="#FFFFFF"></path>
                                    <path d="M22.1190715,93.1915961 L31.1672026,93.1915961 L31.1672026,103.575124 C31.1672026,104.609196 31.7916748,105.126232 33.0305469,105.126232 C34.2371043,105.126232 34.8292616,104.609196 34.8292616,103.575124 L34.8292616,98.2108748 C34.8292616,96.5737338 33.7414715,94.64576 31.55456,92.4374452 C27.3213272,88.3338911 24.6933403,85.5762256 23.6592682,84.1648682 C22.6251961,82.7644223 22.1190715,81.2133141 22.1190715,79.5333666 L22.1190715,74.4490387 C22.1190715,68.5786649 25.9427043,65.6489338 33.601301,65.6489338 C40.4629403,65.6489338 43.8883043,68.3201469 43.8883043,73.6629928 L43.8883043,81.4831633 L34.8292616,81.4831633 L34.8292616,73.1564485 C34.8292616,72.2520551 34.3336289,71.7992289 33.3536944,71.7992289 C32.1903633,71.7992289 31.6086977,72.6717272 31.6086977,74.4167239 L31.8025862,77.3573666 C31.8025862,79.0377338 32.9226911,80.9980223 35.1528289,83.22816 C39.2886977,87.2024551 41.9275961,89.9819436 43.0481207,91.5544551 C44.1787174,93.1269666 44.7389797,94.9256813 44.7389797,96.9182846 L44.7389797,102.692134 C44.7389797,108.71317 40.9048551,111.718442 33.2244354,111.718442 C25.8138649,111.718442 22.1190715,108.982599 22.1190715,103.510494 L22.1190715,93.1915961 Z" id="Fill-7" fill="#FFFFFF"></path>
                                    <path d="M54.9432236,59.7059148 L54.9432236,38.7714098 C54.9432236,38.1570098 54.5772695,37.8498098 53.8462007,37.8498098 C53.0924695,37.8498098 52.7122466,38.1570098 52.7122466,38.7714098 L52.7122466,59.7059148 C52.7122466,60.3203148 53.0924695,60.6275148 53.8462007,60.6275148 C54.5772695,60.6275148 54.9432236,60.3203148 54.9432236,59.7059148 M46.1364039,59.3840262 L46.1364039,39.6052984 C46.1364039,35.6188328 48.7186466,33.6295869 53.8898466,33.6295869 C58.995158,33.6295869 61.5408892,35.6041443 61.5408892,39.5616525 L61.5408892,59.3403803 C61.5408892,61.1323803 60.8312236,62.5000918 59.4118925,63.4653377 C57.9858466,64.4310033 56.1355121,64.9140459 53.8462007,64.9140459 C48.703958,64.9140459 46.1364039,63.0708459 46.1364039,59.3840262" id="Fill-9" fill="#FFFFFF"></path>
                                    <path d="M71.5034859,59.0623056 L71.5034859,39.4812433 C71.5034859,38.4060433 70.8815318,37.8718007 69.6237744,37.8718007 L69.6237744,60.6935711 C70.8815318,60.6935711 71.5034859,60.1521941 71.5034859,59.0623056 Z M62.8720892,64.6359711 L62.8720892,33.9075777 L71.2693089,33.9075777 C73.09824,33.9075777 74.7290859,34.4048892 76.1555515,35.3923777 C77.5891515,36.3870007 78.2983974,37.9158662 78.2983974,39.9710007 L78.2983974,58.5725482 C78.2983974,60.4887711 77.6327974,61.9735711 76.294463,63.041217 C74.963263,64.1021482 73.3026203,64.6359711 71.3133744,64.6359711 L62.8720892,64.6359711 Z" id="Fill-11" fill="#FFFFFF"></path>
                                    <path d="M98.1432236,33.9075777 L93.7324695,46.2908433 L91.5237351,52.486463 L91.5237351,64.6359711 L84.7720498,64.6359711 L84.7720498,52.72064 C84.6402728,51.6378859 84.0623843,49.516863 83.0383843,46.3567318 C82.1532957,43.6867777 80.8514728,39.5324433 79.1324957,33.9075777 L85.5836957,33.9075777 L88.6267384,44.7917744 L92.079381,33.9075777 L98.1432236,33.9075777 Z" id="Fill-13" fill="#FFFFFF"></path>
                                    <polygon id="Fill-15" fill="#FFFFFF" points="56.3887423 69.4290885 53.3188407 69.4290885 53.3188407 91.2054557 47.8165193 91.2054557 47.8165193 69.4290885 44.7407423 69.4290885 44.7407423 66.1623607 56.3887423 66.1623607"></polygon>
                                    <path d="M72.4604643,66.1622767 L68.8659725,76.2545521 L67.065579,81.3040472 L67.065579,91.2053718 L61.5632577,91.2053718 L61.5632577,81.4945784 C61.4558216,80.6124275 60.9849495,78.883798 60.1506413,76.3082702 C59.4288052,74.1326898 58.3682938,70.7463554 56.9670085,66.1622767 L62.224661,66.1622767 L64.7049233,75.0328866 L67.5188249,66.1622767 L72.4604643,66.1622767 Z" id="Fill-17" fill="#FFFFFF"></path>
                                    <polygon id="Fill-19" fill="#FFFFFF" points="83.5543292 91.2054977 73.2291357 91.2054977 73.2291357 66.1624026 78.7318767 66.1624026 78.7318767 87.9924879 83.5543292 87.9924879"></polygon>
                                    <polygon id="Fill-21" fill="#FFFFFF" points="95.1670348 91.2054977 84.4125167 91.2054977 84.4125167 66.1624026 95.1015659 66.1624026 95.1015659 69.3934584 89.9089626 69.3934584 89.9089626 76.153537 94.594602 76.153537 94.594602 79.1877666 89.9089626 79.1877666 89.9089626 87.9924879 95.1670348 87.9924879"></polygon>
                                    <polygon id="Stroke-23" stroke="#FFFFFF" points="56.3887423 69.4290885 53.3188407 69.4290885 53.3188407 91.2054557 47.8165193 91.2054557 47.8165193 69.4290885 44.7407423 69.4290885 44.7407423 66.1623607 56.3887423 66.1623607"></polygon>
                                    <path d="M72.4604643,66.1622767 L68.8659725,76.2545521 L67.065579,81.3040472 L67.065579,91.2053718 L61.5632577,91.2053718 L61.5632577,81.4945784 C61.4558216,80.6124275 60.9849495,78.883798 60.1506413,76.3082702 C59.4288052,74.1326898 58.3682938,70.7463554 56.9670085,66.1622767 L62.224661,66.1622767 L64.7049233,75.0328866 L67.5188249,66.1622767 L72.4604643,66.1622767 Z" id="Stroke-25" stroke="#FFFFFF"></path>
                                    <polygon id="Stroke-27" stroke="#FFFFFF" points="83.5543292 91.2054977 73.2291357 91.2054977 73.2291357 66.1624026 78.7318767 66.1624026 78.7318767 87.9924879 83.5543292 87.9924879"></polygon>
                                    <polygon id="Stroke-29" stroke="#FFFFFF" points="95.1670348 91.2054977 84.4125167 91.2054977 84.4125167 66.1624026 95.1015659 66.1624026 95.1015659 69.3934584 89.9089626 69.3934584 89.9089626 76.153537 94.594602 76.153537 94.594602 79.1877666 89.9089626 79.1877666 89.9089626 87.9924879 95.1670348 87.9924879"></polygon>
                                </g>
                            </g>
                        </g>
                    </g>
                </g>
            </g>
        </g>
    </g>
</svg>